<svg xmlns="http://www.w3.org/2000/svg" viewBox="0 0 800 450" width="100%" height="100%">
 <defs>
  <linearGradient id="glow" x1="0%" y1="0%" x2="100%" y2="100%">
   <stop offset="0%" stop-color="#80ff80" />
   <stop offset="100%" stop-color="#00ff00" />
  </linearGradient>
 </defs>

 <rect x="0" y="0" width="800" height="450" rx="10" fill="#202621" />
 <rect x="0" y="0" width="800" height="35" rx="10" fill="#2d352f" />
 <rect x="0" y="20" width="800" height="15" fill="#2d352f" />

 <circle cx="25" cy="17" r="7" fill="#ff5f56" />
 <circle cx="48" cy="17" r="7" fill="#ffbd2e" />
 <circle cx="71" cy="17" r="7" fill="#27c93f" />

 <text x="25" y="75" fill="#75d175" font-family="monospace" font-size="18">&gt; git</text>
 <text x="25" y="100" fill="#cccccc" font-family="monospace" font-size="16">Napse</text>

 <g fill="none" stroke="#489952" stroke-width="2.5" opacity="0.8">
  <path d="M 120 160 Q 200 130 280 150" />
  <path d="M 120 160 L 90 280 L 220 220 L 120 160" />
  <path d="M 90 280 L 160 295 L 220 220" />
  <path d="M 160 295 L 130 400 L 240 370 L 160 295" />
  <path d="M 280 150 Q 360 170 400 260" />
  <path d="M 220 220 Q 300 240 400 260" />
  <path d="M 240 370 Q 340 400 440 390" />
  <path d="M 280 150 Q 260 260 240 370" />
  <path d="M 120 160 Q 350 100 580 150" />
  <path d="M 280 150 Q 450 110 580 150" />
  <path d="M 280 150 Q 400 200 650 250" />
  <path d="M 240 370 Q 400 460 580 340" />
  <path d="M 440 390 Q 550 400 650 250" />
  <path d="M 580 150 L 690 130 L 740 230 L 650 250 L 580 150" />
  <path d="M 580 150 L 650 250" />
  <path d="M 690 130 L 650 250" />
  <path d="M 650 250 L 580 340 L 730 390 L 650 250" />
  <path d="M 440 390 L 580 340" />
  <path d="M 220 220 L 240 370" />
 </g>

  <g transform="translate(400, 260)">
    <g transform="scale(9) translate(-12, -12.5)">
      <path d="M21.0346 5.82524C21.9445 6.91709 22.3994 8.19091 22.3994 9.64671C22.3994 14.924 19.3969 16.4707 16.5763 16.9257C16.9402 17.5626 17.0312 18.2905 17.0312 19.0184V22.7489C17.0312 23.2038 16.7582 23.4768 16.3943 23.4768C16.0303 23.4768 15.6664 23.2038 15.6664 22.7489V19.0184C15.7574 18.1995 15.4844 17.4716 14.9385 16.9257L15.3934 15.7428C18.214 15.3789 21.1256 14.469 21.1256 9.55572C21.1256 8.37289 20.6707 7.28104 19.8518 6.37117L19.6698 5.64327C20.0338 4.7334 20.0338 3.73254 19.7608 2.91365C19.3059 3.00464 18.396 3.18661 16.8492 4.27846L16.3033 4.36945C14.1196 3.82352 11.9359 3.82352 9.75222 4.36945L9.2063 4.27846C7.56853 3.2776 6.65866 3.00464 6.20372 3.00464C5.93076 3.91451 5.93076 4.91537 6.29471 5.73426L6.11274 6.46215C5.20286 7.37203 4.74793 8.55486 4.74793 9.64671C4.74793 14.469 7.47754 15.4699 10.4801 15.8338L10.8441 17.0167C10.2981 17.5626 10.0252 18.2905 10.1162 19.0184V19.9283V20.0192V22.8399C10.1162 23.2038 9.84321 23.5677 9.38828 23.5677C9.02433 23.5677 8.66038 23.2948 8.66038 22.8399V20.7471C5.6578 21.3841 4.47497 19.8373 3.5651 18.6544C3.11016 18.1085 2.74621 17.6536 2.29127 17.5626C2.20029 17.4716 1.92733 17.1077 2.01831 16.7437C2.1093 16.3798 2.47325 16.1068 2.8372 16.2888C3.74707 16.4707 4.29299 17.1986 4.83892 17.8356C5.6578 18.9274 6.47669 19.9283 8.93334 19.3823V19.0184C8.84235 18.2905 9.02433 17.5626 9.38828 16.9257C6.65866 16.3798 3.47411 14.833 3.47411 9.64671C3.47411 8.19091 3.92904 6.91709 4.83892 5.82524C4.56595 4.55142 4.65694 3.18661 5.11188 2.09477L5.56681 1.73082C5.74879 1.63983 7.02261 1.36687 9.66124 3.00464C11.8449 2.45872 14.1196 2.45872 16.3033 3.00464C18.8509 1.27588 20.2158 1.54884 20.3977 1.63983L20.8527 2.00378C21.3076 3.2776 21.3986 4.55142 21.0346 5.82524Z" fill="#ffc400"/>
      <g transform="translate(0 0) scale(1.5 1.5625)">
        <path d="M6 11 L7 11 L10 14 L9 14 Z" fill="#ffc400"/>
        <path d="M9 11 L10 11 L7 14 L6 14 Z" fill="#ffc400"/>
      </g>
    </g>
 </g>

 <g fill="#437048" stroke="#75d175" stroke-width="3">
  <circle cx="120" cy="160" r="13" />
  <circle cx="280" cy="150" r="13" />
  <circle cx="90" cy="280" r="13" />
  <circle cx="160" cy="295" r="13" />
  <circle cx="220" cy="220" r="13" />
  <circle cx="130" cy="400" r="13" />
  <circle cx="240" cy="370" r="13" />
  <circle cx="580" cy="150" r="13" />
  <circle cx="690" cy="130" r="13" />
  <circle cx="740" cy="230" r="13" />
  <circle cx="650" cy="250" r="13" />
  <circle cx="580" cy="340" r="13" />
  <circle cx="730" cy="390" r="13" />
  <circle cx="440" cy="390" r="13" />
 </g>

 <g stroke="#202621" stroke-width="3.5" stroke-linecap="round">
  <g transform="translate(120, 160)"><line x1="-5" y1="-5" x2="5" y2="5"/><line x1="5" y1="-5" x2="-5" y2="5"/></g>
  <g transform="translate(280, 150)"><line x1="-5" y1="-5" x2="5" y2="5"/><line x1="5" y1="-5" x2="-5" y2="5"/></g>
  <g transform="translate(90, 280)"><line x1="-5" y1="-5" x2="5" y2="5"/><line x1="5" y1="-5" x2="-5" y2="5"/></g>
  <g transform="translate(160, 295)"><line x1="-5" y1="-5" x2="5" y2="5"/><line x1="5" y1="-5" x2="-5" y2="5"/></g>
  <g transform="translate(220, 220)"><line x1="-5" y1="-5" x2="5" y2="5"/><line x1="5" y1="-5" x2="-5" y2="5"/></g>
  <g transform="translate(130, 400)"><line x1="-5" y1="-5" x2="5" y2="5"/><line x1="5" y1="-5" x2="-5" y2="5"/></g>
  <g transform="translate(240, 370)"><line x1="-5" y1="-5" x2="5" y2="5"/><line x1="5" y1="-5" x2="-5" y2="5"/></g>
  <g transform="translate(580, 150)"><line x1="-5" y1="-5" x2="5" y2="5"/><line x1="5" y1="-5" x2="-5" y2="5"/></g>
  <g transform="translate(690, 130)"><line x1="-5" y1="-5" x2="5" y2="5"/><line x1="5" y1="-5" x2="-5" y2="5"/></g>
  <g transform="translate(740, 230)"><line x1="-5" y1="-5" x2="5" y2="5"/><line x1="5" y1="-5" x2="-5" y2="5"/></g>
  <g transform="translate(650, 250)"><line x1="-5" y1="-5" x2="5" y2="5"/><line x1="5" y1="-5" x2="-5" y2="5"/></g>
  <g transform="translate(580, 340)"><line x1="-5" y1="-5" x2="5" y2="5"/><line x1="5" y1="-5" x2="-5" y2="5"/></g>
  <g transform="translate(730, 390)"><line x1="-5" y1="-5" x2="5" y2="5"/><line x1="5" y1="-5" x2="-5" y2="5"/></g>
  <g transform="translate(440, 390)"><line x1="-5" y1="-5" x2="5" y2="5"/><line x1="5" y1="-5" x2="-5" y2="5"/></g>
 </g>
</svg>
