<svg xmlns="http://www.w3.org/2000/svg" width="200" height="250" viewBox="0 0 200 250"><rect width="200" height="250" rx="8" fill="#f8fafe"/><rect x="1" y="1" width="198" height="248" rx="8" fill="none" stroke="rgba(255,255,255,0.08)" stroke-width="1"/><text x="100" y="22" text-anchor="middle" font-family="monospace" font-size="10" font-weight="700" fill="#544d40">X Helsinki</text><rect x="12" y="32" width="40" height="40" rx="3" fill="#f8fafe"/><rect x="55" y="32" width="40" height="40" rx="3" fill="#1faa9e"/><rect x="98" y="32" width="40" height="40" rx="3" fill="#733d9a"/><rect x="141" y="32" width="40" height="40" rx="3" fill="#2e70ad"/><rect x="12" y="75" width="40" height="40" rx="3" fill="#b55a0f"/><rect x="55" y="75" width="40" height="40" rx="3" fill="#3e9d21"/><rect x="98" y="75" width="40" height="40" rx="3" fill="#bd4c3d"/><rect x="141" y="75" width="40" height="40" rx="3" fill="#544d40"/><rect x="12" y="118" width="40" height="40" rx="3" fill="#b0a999"/><rect x="55" y="118" width="40" height="40" rx="3" fill="#009e91"/><rect x="98" y="118" width="40" height="40" rx="3" fill="#5a1f8a"/><rect x="141" y="118" width="40" height="40" rx="3" fill="#0f5ba2"/><rect x="12" y="161" width="40" height="40" rx="3" fill="#b23b00"/><rect x="55" y="161" width="40" height="40" rx="3" fill="#218c00"/><rect x="98" y="161" width="40" height="40" rx="3" fill="#b32e1f"/><rect x="141" y="161" width="40" height="40" rx="3" fill="#000000"/><rect x="12" y="212" width="80" height="8" rx="2" fill="#f8fafe" stroke="rgba(255,255,255,0.15)" stroke-width="0.5"/><rect x="98" y="212" width="80" height="8" rx="2" fill="#544d40" stroke="rgba(255,255,255,0.15)" stroke-width="0.5"/><text x="52" y="228" text-anchor="middle" font-family="monospace" font-size="6" fill="rgba(255,255,255,0.4)">BG</text><text x="138" y="228" text-anchor="middle" font-family="monospace" font-size="6" fill="rgba(255,255,255,0.4)">FG</text></svg>