<svg xmlns="http://www.w3.org/2000/svg" width="200" height="250" viewBox="0 0 200 250"><rect width="200" height="250" rx="8" fill="#fafafa"/><rect x="1" y="1" width="198" height="248" rx="8" fill="none" stroke="rgba(255,255,255,0.08)" stroke-width="1"/><text x="100" y="22" text-anchor="middle" font-family="monospace" font-size="10" font-weight="700" fill="#1a1a1a">X Madrid</text><rect x="12" y="32" width="40" height="40" rx="3" fill="#fafafa"/><rect x="55" y="32" width="40" height="40" rx="3" fill="#990026"/><rect x="98" y="32" width="40" height="40" rx="3" fill="#007a28"/><rect x="141" y="32" width="40" height="40" rx="3" fill="#8a6408"/><rect x="12" y="75" width="40" height="40" rx="3" fill="#007a9e"/><rect x="55" y="75" width="40" height="40" rx="3" fill="#4d2699"/><rect x="98" y="75" width="40" height="40" rx="3" fill="#007a9e"/><rect x="141" y="75" width="40" height="40" rx="3" fill="#1a1a1a"/><rect x="12" y="118" width="40" height="40" rx="3" fill="#4d4d4d"/><rect x="55" y="118" width="40" height="40" rx="3" fill="#990026"/><rect x="98" y="118" width="40" height="40" rx="3" fill="#007a28"/><rect x="141" y="118" width="40" height="40" rx="3" fill="#8a6408"/><rect x="12" y="161" width="40" height="40" rx="3" fill="#007a9e"/><rect x="55" y="161" width="40" height="40" rx="3" fill="#4d2699"/><rect x="98" y="161" width="40" height="40" rx="3" fill="#007a9e"/><rect x="141" y="161" width="40" height="40" rx="3" fill="#1a1a1a"/><rect x="12" y="212" width="80" height="8" rx="2" fill="#fafafa" stroke="rgba(255,255,255,0.15)" stroke-width="0.5"/><rect x="98" y="212" width="80" height="8" rx="2" fill="#1a1a1a" stroke="rgba(255,255,255,0.15)" stroke-width="0.5"/><text x="52" y="228" text-anchor="middle" font-family="monospace" font-size="6" fill="rgba(255,255,255,0.4)">BG</text><text x="138" y="228" text-anchor="middle" font-family="monospace" font-size="6" fill="rgba(255,255,255,0.4)">FG</text></svg>