<svg xmlns="http://www.w3.org/2000/svg" width="200" height="250" viewBox="0 0 200 250"><rect width="200" height="250" rx="8" fill="#1a1a1a"/><rect x="1" y="1" width="198" height="248" rx="8" fill="none" stroke="rgba(255,255,255,0.08)" stroke-width="1"/><text x="100" y="22" text-anchor="middle" font-family="monospace" font-size="10" font-weight="700" fill="#ffffff">X Praha</text><rect x="12" y="32" width="40" height="40" rx="3" fill="#1A1A1A"/><rect x="55" y="32" width="40" height="40" rx="3" fill="#FF5555"/><rect x="98" y="32" width="40" height="40" rx="3" fill="#B8E6A0"/><rect x="141" y="32" width="40" height="40" rx="3" fill="#FFE4A3"/><rect x="12" y="75" width="40" height="40" rx="3" fill="#BD93F9"/><rect x="55" y="75" width="40" height="40" rx="3" fill="#FF9AA2"/><rect x="98" y="75" width="40" height="40" rx="3" fill="#8BE9FD"/><rect x="141" y="75" width="40" height="40" rx="3" fill="#FFFFFF"/><rect x="12" y="118" width="40" height="40" rx="3" fill="#6272A4"/><rect x="55" y="118" width="40" height="40" rx="3" fill="#FF6E6E"/><rect x="98" y="118" width="40" height="40" rx="3" fill="#B8E6A0"/><rect x="141" y="118" width="40" height="40" rx="3" fill="#FFE4A3"/><rect x="12" y="161" width="40" height="40" rx="3" fill="#D6ACFF"/><rect x="55" y="161" width="40" height="40" rx="3" fill="#FF9AA2"/><rect x="98" y="161" width="40" height="40" rx="3" fill="#A4FFFF"/><rect x="141" y="161" width="40" height="40" rx="3" fill="#FFFFFF"/><rect x="12" y="212" width="80" height="8" rx="2" fill="#1a1a1a" stroke="rgba(255,255,255,0.15)" stroke-width="0.5"/><rect x="98" y="212" width="80" height="8" rx="2" fill="#ffffff" stroke="rgba(255,255,255,0.15)" stroke-width="0.5"/><text x="52" y="228" text-anchor="middle" font-family="monospace" font-size="6" fill="rgba(255,255,255,0.4)">BG</text><text x="138" y="228" text-anchor="middle" font-family="monospace" font-size="6" fill="rgba(255,255,255,0.4)">FG</text></svg>